<svg width="24" height="24" viewBox="0 0 24 24" fill="none" xmlns="http://www.w3.org/2000/svg"><path fill-rule="evenodd" clip-rule="evenodd" d="M16.805 6.116a1.08 1.08 0 10-.002 2.158 1.08 1.08 0 00.002-2.158zm2.521 9.52c-.04.878-.187 1.355-.31 1.672-.164.42-.358.72-.673 1.035a2.79 2.79 0 01-1.036.673c-.316.123-.793.27-1.67.31-.95.043-1.234.053-3.637.053s-2.688-.01-3.637-.053c-.878-.04-1.354-.187-1.67-.31a2.778 2.778 0 01-1.036-.673 2.786 2.786 0 01-.673-1.035c-.124-.317-.27-.794-.31-1.671-.043-.95-.052-1.233-.052-3.637 0-2.403.01-2.688.052-3.636.04-.878.186-1.354.31-1.672.163-.42.358-.72.673-1.034.315-.315.614-.51 1.035-.674.317-.123.793-.27 1.671-.31.95-.043 1.234-.052 3.637-.052s2.687.009 3.637.052c.877.04 1.354.187 1.67.31.421.164.72.359 1.036.674.315.314.51.614.672 1.034.124.318.271.794.311 1.672.043.948.052 1.233.052 3.636 0 2.404-.009 2.688-.052 3.637zM12 15a3 3 0 110-6 3 3 0 010 6zm0-7.622a4.622 4.622 0 100 9.243 4.622 4.622 0 000-9.243zm8.946.91c-.044-.956-.196-1.61-.419-2.183A4.385 4.385 0 0019.49 4.51c-.5-.5-1.002-.808-1.594-1.038-.572-.223-1.226-.375-2.184-.42-.96-.042-1.267-.053-3.71-.053-2.446 0-2.752.01-3.712.054-.958.044-1.612.196-2.185.419A4.416 4.416 0 004.511 4.51a4.401 4.401 0 00-1.039 1.594c-.222.573-.375 1.227-.418 2.184-.043.96-.054 1.267-.054 3.71 0 2.446.011 2.752.054 3.712.043.958.196 1.612.418 2.185.23.592.538 1.094 1.04 1.594.5.5 1.001.808 1.592 1.038.573.222 1.227.375 2.185.418C9.25 20.99 9.555 21 12 21c2.444 0 2.751-.01 3.711-.054.958-.043 1.612-.196 2.184-.418a4.411 4.411 0 001.594-1.038c.501-.5.81-1.002 1.038-1.594.223-.573.375-1.227.42-2.185.042-.96.053-1.266.053-3.711 0-2.444-.01-2.751-.054-3.711z" fill="#fff"/></svg>