<svg width="215" height="35" viewBox="0 0 215 35" fill="none" xmlns="http://www.w3.org/2000/svg"><g clip-path="url(#clip0)" fill="#1C1819"><path d="M29.829 9.085c-4.944 0-8.952 4.005-8.952 8.945s4.008 8.946 8.952 8.946c4.943 0 8.95-4.005 8.95-8.946.015-4.926-3.993-8.945-8.95-8.945zm0 14.08a5.118 5.118 0 01-5.126-5.12 5.118 5.118 0 015.126-5.122 5.118 5.118 0 015.125 5.121 5.118 5.118 0 01-5.125 5.122zM46.07.544h-3.827v25.943h3.826V.544zm12.707 8.541c-4.943 0-8.951 4.005-8.951 8.945a8.94 8.94 0 001.41 4.829l.014.014a8.832 8.832 0 002.667 2.665l.014.014a8.946 8.946 0 004.832 1.41 8.913 8.913 0 006.983-3.363l-2.737-2.736a5.097 5.097 0 01-4.246 2.261c-.712 0-1.396-.14-2.01-.405l6.73-6.726 2.793-2.735.042-.042a8.958 8.958 0 00-7.54-4.131zm-5.125 8.96a5.118 5.118 0 015.125-5.122 5.33 5.33 0 012.011.404l-6.717 6.713a4.778 4.778 0 01-.419-1.996zm28.083-6.322c-1.09-1.005-3.058-2.624-6.326-2.624-3.198 0-6.242 1.758-6.298 5.233-.042 2.596 1.16 4.229 5.307 5.178 2.262.516 4.021.725 4.077 2.01.042 1.074-.991 1.744-3.072 1.66-1.55-.056-3.268-.907-4.301-2.233l-2.71 2.693c.895 1.033 3.157 3.364 6.997 3.364 3.98 0 6.87-2.4 6.913-5.527.014-1.326-.405-3.084-2.249-4.13-1.2-.684-2.415-.908-4.706-1.41-1.731-.377-2.472-.795-2.43-1.702.042-.824.964-1.368 2.528-1.298 1.201.055 2.584.446 3.561 1.493l2.71-2.707zm17.149-.14a6.887 6.887 0 00-5.125-2.498c-4.944 0-8.952 4.005-8.952 8.945s4.008 8.946 8.952 8.946a6.863 6.863 0 005.125-2.498v1.981h3.826V9.601h-3.826v1.982zm-5.125 11.583a5.118 5.118 0 01-5.125-5.122 5.118 5.118 0 015.125-5.121 5.118 5.118 0 015.125 5.121 5.118 5.118 0 01-5.125 5.122zm71.122-14.081c-4.944 0-8.952 4.005-8.952 8.945s4.008 8.946 8.952 8.946c4.943 0 8.951-4.005 8.951-8.946 0-4.926-4.008-8.945-8.951-8.945zm0 14.08a5.118 5.118 0 01-5.125-5.12 5.118 5.118 0 015.125-5.122 5.118 5.118 0 015.125 5.121 5.118 5.118 0 01-5.125 5.122zm24.173-13.55v9.518a4.106 4.106 0 01-4.106 4.033c-2.248 0-4.078-1.8-4.106-4.033V9.615h-3.826v10.592a6.783 6.783 0 006.787 6.783h.237a6.77 6.77 0 004.818-2.261c.07-.084.14-.154.21-.237v1.967h3.826V9.615h-3.84zm-36.239-.53a6.889 6.889 0 00-5.125 2.498V9.615h-3.826v16.858h3.826V18.03a5.12 5.12 0 015.125-5.093c.349 0 .685.042 1.006.097V9.141a11.504 11.504 0 00-1.006-.056zm53.234 0a6.887 6.887 0 00-5.125 2.498V9.615h-3.827v25.399h3.827V24.506a6.887 6.887 0 005.125 2.498c4.943 0 8.951-4.006 8.951-8.946 0-4.954-4.008-8.973-8.951-8.973zm0 14.08a5.118 5.118 0 01-5.125-5.12 5.118 5.118 0 015.125-5.122 5.118 5.118 0 015.125 5.121 5.118 5.118 0 01-5.125 5.122zM20.584 26.473L10.027 11.597 19.564.544h-5.04L3.825 12.937V.544H0v25.93h3.826v-7.69l3.505-4.061 8.337 11.75h4.916zm119.091-13.55h-6.969l-3.826 3.823h6.968v3.447a1.52 1.52 0 00-.139.154 9.673 9.673 0 01-13.686 0 9.657 9.657 0 010-13.676c3.408-3.405 8.728-3.74 12.513-.991l2.737-2.75c-5.307-4.228-13.043-3.893-17.959 1.02-5.279 5.274-5.279 13.815 0 19.09s13.825 5.275 19.104 0c.461-.46.88-.949 1.257-1.451v-8.666z"/></g><defs><clipPath id="clip0"><path fill="#fff" d="M0 0h215v35H0z"/></clipPath></defs></svg>