<svg width="24" height="24" viewBox="0 0 24 24" fill="none" xmlns="http://www.w3.org/2000/svg"><path fill-rule="evenodd" clip-rule="evenodd" d="M20.587 7.745c.125-.43 0-.745-.595-.745h-1.969c-.501 0-.732.273-.857.574 0 0-1.002 2.51-2.42 4.143-.459.472-.668.622-.918.622-.126 0-.307-.15-.307-.58V7.746c0-.515-.145-.745-.562-.745H9.864a.481.481 0 00-.501.466c0 .488.709.6.783 1.975v2.984c0 .654-.115.773-.366.773-.667 0-2.291-2.523-3.254-5.41C6.337 7.227 6.148 7 5.645 7h-1.97C3.112 7 3 7.273 3 7.574c0 .536.668 3.198 3.108 6.719C7.736 16.697 10.028 18 12.115 18c1.251 0 1.406-.29 1.406-.788v-1.817c0-.58.119-.694.515-.694.292 0 .793.15 1.961 1.309 1.336 1.374 1.556 1.99 2.307 1.99h1.969c.563 0 .844-.29.682-.86-.178-.57-.816-1.396-1.661-2.375-.459-.558-1.148-1.16-1.356-1.46-.292-.386-.209-.558 0-.901 0 0 2.399-3.478 2.649-4.66z" fill="#fff"/></svg>